# xmcd
#
# Track frame offsets:
#	150
#	19443
#	31365
#	47821
#	64053
#	78261
#	89654
#	108947
#	120869
#	137325
#	153557
#	167765
#	190558
#
# Disc length: 2549 seconds
#
# Revision: 0
# Processed by: cddbd v1.5.2PL0 Copyright (c) Steve Scherf et al.
# Submitted via: audiograbber 1.83.01
#
DISCID=9f09f30d
DTITLE=Priddis Pro Sound - PPS1419
DYEAR=2001
DGENRE=Karaoke
TTITLE0=Soggy Bottom Boys, The - I Am A Man Of Constant Sorrow
TTITLE1=McClintock, Harry - Big Rock Candy Mountain
TTITLE2=Whites, The - Keep On The Sunny Side
TTITLE3=Soggy Bottom Boys, The - In The Jailhouse Now
TTITLE4=Krauss, Alison - Down To The River To Pray
TTITLE5=Christian;Stanley Brothers, The - Angel Band
TTITLE6=Soggy Bottom Boys, The - I Am A Man Of Constant Sorrow [Vocal]
TTITLE7=McClintock, Harry - Big Rock Candy Mountain [Vocal]
TTITLE8=Whites, The - Keep On The Sunny Side [Vocal]
TTITLE9=Soggy Bottom Boys, The - In The Jailhouse Now [Vocal]
TTITLE10=Krauss, Alison - Down To The River To Pray [Vocal]
TTITLE11=Christian;Stanley Brothers, The - Angel Band [Vocal]
TTITLE12=Data - Data
EXTD=
EXTT0=
EXTT1=
EXTT2=
EXTT3=
EXTT4=
EXTT5=
EXTT6=
EXTT7=
EXTT8=
EXTT9=
EXTT10=
EXTT11=
EXTT12=
PLAYORDER=
